<mxfile host="app.diagrams.net" agent="Mozilla/5.0 (Windows NT 10.0; Win64; x64) AppleWebKit/537.36 (KHTML, like Gecko) Chrome/141.0.0.0 Safari/537.36 Edg/141.0.0.0" version="28.2.7">
  <diagram name="Página-1" id="2g8dSQ8VP0qw0Hh7nZ7s">
    <mxGraphModel dx="1418" dy="786" grid="1" gridSize="10" guides="1" tooltips="1" connect="1" arrows="1" fold="1" page="1" pageScale="1" pageWidth="827" pageHeight="1169" math="0" shadow="0">
      <root>
        <mxCell id="0" />
        <mxCell id="1" parent="0" />
        <mxCell id="_icJz66q2sbCZXhJ8g79-1" value="hace click" style="strokeWidth=2;html=1;shape=mxgraph.flowchart.start_1;whiteSpace=wrap;" vertex="1" parent="1">
          <mxGeometry x="230" y="90" width="100" height="60" as="geometry" />
        </mxCell>
        <mxCell id="_icJz66q2sbCZXhJ8g79-12" style="edgeStyle=orthogonalEdgeStyle;rounded=0;orthogonalLoop=1;jettySize=auto;html=1;" edge="1" parent="1" source="_icJz66q2sbCZXhJ8g79-9">
          <mxGeometry relative="1" as="geometry">
            <mxPoint x="280" y="320" as="targetPoint" />
          </mxGeometry>
        </mxCell>
        <mxCell id="_icJz66q2sbCZXhJ8g79-9" value="lanzas la caña" style="strokeWidth=2;html=1;shape=mxgraph.flowchart.terminator;whiteSpace=wrap;" vertex="1" parent="1">
          <mxGeometry x="230" y="230" width="100" height="50" as="geometry" />
        </mxCell>
        <mxCell id="_icJz66q2sbCZXhJ8g79-27" value="ampliación del juego&amp;nbsp;" style="shape=tape;whiteSpace=wrap;html=1;strokeWidth=2;size=0.19" vertex="1" parent="1">
          <mxGeometry x="114.16" y="980" width="690" height="65" as="geometry" />
        </mxCell>
        <mxCell id="_icJz66q2sbCZXhJ8g79-28" style="edgeStyle=orthogonalEdgeStyle;rounded=0;orthogonalLoop=1;jettySize=auto;html=1;exitX=0.5;exitY=1;exitDx=0;exitDy=0;exitPerimeter=0;entryX=0.5;entryY=0;entryDx=0;entryDy=0;entryPerimeter=0;" edge="1" parent="1" source="_icJz66q2sbCZXhJ8g79-1" target="_icJz66q2sbCZXhJ8g79-9">
          <mxGeometry relative="1" as="geometry" />
        </mxCell>
        <mxCell id="_icJz66q2sbCZXhJ8g79-31" style="edgeStyle=orthogonalEdgeStyle;rounded=0;orthogonalLoop=1;jettySize=auto;html=1;exitX=0.5;exitY=1;exitDx=0;exitDy=0;entryX=0.5;entryY=0;entryDx=0;entryDy=0;" edge="1" parent="1" source="_icJz66q2sbCZXhJ8g79-29" target="_icJz66q2sbCZXhJ8g79-30">
          <mxGeometry relative="1" as="geometry" />
        </mxCell>
        <mxCell id="_icJz66q2sbCZXhJ8g79-29" value="1. baja el sedal&lt;br&gt;2. la altura del anzuelo varia periódicamente&lt;div&gt;3. salen peces de forma aleatoria por los laterales&lt;/div&gt;" style="rounded=0;whiteSpace=wrap;html=1;" vertex="1" parent="1">
          <mxGeometry x="120" y="320" width="320" height="110" as="geometry" />
        </mxCell>
        <mxCell id="_icJz66q2sbCZXhJ8g79-32" style="edgeStyle=orthogonalEdgeStyle;rounded=0;orthogonalLoop=1;jettySize=auto;html=1;exitX=0.5;exitY=1;exitDx=0;exitDy=0;" edge="1" parent="1" source="_icJz66q2sbCZXhJ8g79-30">
          <mxGeometry relative="1" as="geometry">
            <mxPoint x="280" y="660" as="targetPoint" />
            <Array as="points">
              <mxPoint x="280" y="590" />
              <mxPoint x="280" y="590" />
            </Array>
          </mxGeometry>
        </mxCell>
        <mxCell id="_icJz66q2sbCZXhJ8g79-48" value="si" style="edgeLabel;html=1;align=center;verticalAlign=middle;resizable=0;points=[];" vertex="1" connectable="0" parent="_icJz66q2sbCZXhJ8g79-32">
          <mxGeometry x="-0.1" y="7" relative="1" as="geometry">
            <mxPoint as="offset" />
          </mxGeometry>
        </mxCell>
        <mxCell id="_icJz66q2sbCZXhJ8g79-30" value="¿el jugador pulso tecla izquierda o derecha?&amp;nbsp;" style="rhombus;whiteSpace=wrap;html=1;" vertex="1" parent="1">
          <mxGeometry x="105" y="480" width="350" height="80" as="geometry" />
        </mxCell>
        <mxCell id="_icJz66q2sbCZXhJ8g79-37" value="" style="edgeStyle=orthogonalEdgeStyle;rounded=0;orthogonalLoop=1;jettySize=auto;html=1;" edge="1" parent="1" source="_icJz66q2sbCZXhJ8g79-35">
          <mxGeometry relative="1" as="geometry">
            <mxPoint x="860" y="523" as="targetPoint" />
          </mxGeometry>
        </mxCell>
        <mxCell id="_icJz66q2sbCZXhJ8g79-38" value="no" style="edgeLabel;html=1;align=center;verticalAlign=middle;resizable=0;points=[];" vertex="1" connectable="0" parent="_icJz66q2sbCZXhJ8g79-37">
          <mxGeometry x="-0.0833" y="-2" relative="1" as="geometry">
            <mxPoint as="offset" />
          </mxGeometry>
        </mxCell>
        <mxCell id="_icJz66q2sbCZXhJ8g79-35" value="¿colisiona el pez con el anzuelo?" style="html=1;whiteSpace=wrap;aspect=fixed;shape=isoRectangle;" vertex="1" parent="1">
          <mxGeometry x="579.99" y="472.5" width="158.33" height="95" as="geometry" />
        </mxCell>
        <mxCell id="_icJz66q2sbCZXhJ8g79-39" style="edgeStyle=orthogonalEdgeStyle;rounded=0;orthogonalLoop=1;jettySize=auto;html=1;exitX=1;exitY=0.5;exitDx=0;exitDy=0;entryX=-0.006;entryY=0.532;entryDx=0;entryDy=0;entryPerimeter=0;" edge="1" parent="1" source="_icJz66q2sbCZXhJ8g79-30" target="_icJz66q2sbCZXhJ8g79-35">
          <mxGeometry relative="1" as="geometry" />
        </mxCell>
        <mxCell id="_icJz66q2sbCZXhJ8g79-40" value="no" style="edgeLabel;html=1;align=center;verticalAlign=middle;resizable=0;points=[];" vertex="1" connectable="0" parent="_icJz66q2sbCZXhJ8g79-39">
          <mxGeometry x="0.102" y="1" relative="1" as="geometry">
            <mxPoint as="offset" />
          </mxGeometry>
        </mxCell>
        <mxCell id="_icJz66q2sbCZXhJ8g79-43" value="" style="endArrow=classic;html=1;rounded=0;exitX=0.499;exitY=0.963;exitDx=0;exitDy=0;exitPerimeter=0;entryX=0.5;entryY=0;entryDx=0;entryDy=0;" edge="1" parent="1" source="_icJz66q2sbCZXhJ8g79-35" target="_icJz66q2sbCZXhJ8g79-46">
          <mxGeometry width="50" height="50" relative="1" as="geometry">
            <mxPoint x="380" y="710" as="sourcePoint" />
            <mxPoint x="664.5799999999999" y="630" as="targetPoint" />
          </mxGeometry>
        </mxCell>
        <mxCell id="_icJz66q2sbCZXhJ8g79-44" value="si" style="edgeLabel;html=1;align=center;verticalAlign=middle;resizable=0;points=[];" vertex="1" connectable="0" parent="_icJz66q2sbCZXhJ8g79-43">
          <mxGeometry x="-0.1737" y="-1" relative="1" as="geometry">
            <mxPoint as="offset" />
          </mxGeometry>
        </mxCell>
        <mxCell id="_icJz66q2sbCZXhJ8g79-47" style="edgeStyle=orthogonalEdgeStyle;rounded=0;orthogonalLoop=1;jettySize=auto;html=1;" edge="1" parent="1" source="_icJz66q2sbCZXhJ8g79-46">
          <mxGeometry relative="1" as="geometry">
            <mxPoint x="280" y="450" as="targetPoint" />
            <Array as="points">
              <mxPoint x="50" y="780" />
              <mxPoint x="50" y="450" />
            </Array>
          </mxGeometry>
        </mxCell>
        <mxCell id="_icJz66q2sbCZXhJ8g79-46" value="el pez se apilara al lado del pescador" style="rounded=0;whiteSpace=wrap;html=1;" vertex="1" parent="1">
          <mxGeometry x="514.16" y="750" width="290" height="60" as="geometry" />
        </mxCell>
        <mxCell id="_icJz66q2sbCZXhJ8g79-50" style="edgeStyle=orthogonalEdgeStyle;rounded=0;orthogonalLoop=1;jettySize=auto;html=1;exitX=0.5;exitY=1;exitDx=0;exitDy=0;" edge="1" parent="1" source="_icJz66q2sbCZXhJ8g79-49">
          <mxGeometry relative="1" as="geometry">
            <mxPoint x="580" y="520" as="targetPoint" />
            <Array as="points">
              <mxPoint x="280" y="720" />
              <mxPoint x="580" y="720" />
            </Array>
          </mxGeometry>
        </mxCell>
        <mxCell id="_icJz66q2sbCZXhJ8g79-49" value="mover izq o dch" style="rounded=0;whiteSpace=wrap;html=1;" vertex="1" parent="1">
          <mxGeometry x="220" y="630" width="120" height="60" as="geometry" />
        </mxCell>
      </root>
    </mxGraphModel>
  </diagram>
</mxfile>
